<svg width="1200" height="800" viewBox="0 0 1200 800" fill="none" xmlns="http://www.w3.org/2000/svg">
  <rect width="1200" height="800" fill="#FCFAF5"/>
  <rect x="48" y="48" width="1104" height="704" rx="36" fill="#FFF7ED" stroke="#D6D3D1" stroke-width="2"/>
  <rect x="108" y="88" width="984" height="112" rx="28" fill="#78350F"/>
  <text x="600" y="155" text-anchor="middle" font-family="Arial, sans-serif" font-size="40" font-weight="700" fill="#F8FAFC">EXPO STAGE</text>
  <rect x="120" y="220" width="440" height="130" rx="28" fill="#FFFFFF" stroke="#D6D3D1" stroke-width="2"/>
  <rect x="120" y="390" width="440" height="150" rx="28" fill="#FFFFFF" stroke="#D6D3D1" stroke-width="2"/>
  <rect x="620" y="260" width="460" height="150" rx="28" fill="#FFFFFF" stroke="#D6D3D1" stroke-width="2"/>
  <rect x="620" y="470" width="460" height="150" rx="28" fill="#FFFFFF" stroke="#D6D3D1" stroke-width="2"/>
  <rect x="168" y="248" width="132" height="76" rx="18" fill="#F5F5F4" stroke="#A8A29E"/>
  <rect x="320" y="248" width="132" height="76" rx="18" fill="#F5F5F4" stroke="#A8A29E"/>
  <rect x="168" y="428" width="132" height="76" rx="18" fill="#F5F5F4" stroke="#A8A29E"/>
  <rect x="320" y="428" width="132" height="76" rx="18" fill="#F5F5F4" stroke="#A8A29E"/>
  <rect x="674" y="300" width="146" height="84" rx="18" fill="#F5F5F4" stroke="#A8A29E"/>
  <rect x="850" y="300" width="146" height="84" rx="18" fill="#F5F5F4" stroke="#A8A29E"/>
  <rect x="710" y="512" width="146" height="84" rx="18" fill="#F5F5F4" stroke="#A8A29E"/>
  <rect x="878" y="512" width="146" height="84" rx="18" fill="#F5F5F4" stroke="#A8A29E"/>
  <text x="235" y="290" text-anchor="middle" font-family="Arial, sans-serif" font-size="24" font-weight="700" fill="#44403C">A-01</text>
  <text x="387" y="290" text-anchor="middle" font-family="Arial, sans-serif" font-size="24" font-weight="700" fill="#44403C">A-02</text>
  <text x="235" y="470" text-anchor="middle" font-family="Arial, sans-serif" font-size="24" font-weight="700" fill="#44403C">B-01</text>
  <text x="387" y="470" text-anchor="middle" font-family="Arial, sans-serif" font-size="24" font-weight="700" fill="#44403C">B-02</text>
  <text x="747" y="346" text-anchor="middle" font-family="Arial, sans-serif" font-size="24" font-weight="700" fill="#44403C">C-01</text>
  <text x="923" y="346" text-anchor="middle" font-family="Arial, sans-serif" font-size="24" font-weight="700" fill="#44403C">C-02</text>
  <text x="783" y="558" text-anchor="middle" font-family="Arial, sans-serif" font-size="24" font-weight="700" fill="#44403C">D-01</text>
  <text x="951" y="558" text-anchor="middle" font-family="Arial, sans-serif" font-size="24" font-weight="700" fill="#44403C">D-02</text>
  <path d="M580 220V620" stroke="#FED7AA" stroke-width="34" stroke-linecap="round" stroke-dasharray="6 24"/>
  <path d="M150 370H1050" stroke="#FED7AA" stroke-width="34" stroke-linecap="round" stroke-dasharray="6 24"/>
  <text x="600" y="690" text-anchor="middle" font-family="Arial, sans-serif" font-size="28" font-weight="700" fill="#9A3412">COFFEE EXPO 2026 PUBLIC FLOOR MAP</text>
</svg>
